<?xml version="1.0" encoding="utf-8"?>
<!-- Generator: Adobe Illustrator 16.0.0, SVG Export Plug-In . SVG Version: 6.00 Build 0)  -->
<!DOCTYPE svg PUBLIC "-//W3C//DTD SVG 1.1//EN" "http://www.w3.org/Graphics/SVG/1.1/DTD/svg11.dtd">
<svg version="1.1" id="Layer_1" xmlns="http://www.w3.org/2000/svg" xmlns:xlink="http://www.w3.org/1999/xlink" x="0px" y="0px"
	 width="24px" height="24px" viewBox="0 0 24 24" enable-background="new 0 0 24 24" xml:space="preserve">
<g>
	<path d="M21.986,11.841c0-2.625-1.022-5.093-2.879-6.949c-1.831-1.832-4.259-2.85-6.845-2.877V2.014h-0.104h-0.104v0.001
		C9.469,2.042,7.042,3.06,5.21,4.892c-1.855,1.856-2.878,4.324-2.878,6.949c0,2.624,1.022,5.093,2.878,6.948
		c1.832,1.832,4.259,2.851,6.845,2.877v0.002h0.104l0,0l0,0h0.104v-0.002c2.586-0.026,5.014-1.045,6.845-2.877
		C20.964,16.934,21.986,14.465,21.986,11.841z M12.055,2.222V21.46c-2.53-0.026-4.905-1.024-6.698-2.817
		C3.54,16.825,2.54,14.41,2.54,11.841c0-2.57,1-4.985,2.817-6.802C7.149,3.246,9.524,2.249,12.055,2.222z"/>
	<path fill="#FFFFFF" d="M5.356,18.643c1.793,1.793,4.168,2.791,6.698,2.817V2.222c-2.53,0.027-4.905,1.024-6.698,2.817
		C3.54,6.855,2.54,9.271,2.54,11.841C2.54,14.41,3.54,16.825,5.356,18.643z"/>
</g>
</svg>
